<?xml version="1.0" standalone="no"?>
<!DOCTYPE svg PUBLIC "-//W3C//DTD SVG 20010904//EN"
 "http://www.w3.org/TR/2001/REC-SVG-20010904/DTD/svg10.dtd">
<svg version="1.0" xmlns="http://www.w3.org/2000/svg"
 width="800.000000pt" height="600.000000pt" viewBox="0 0 800.000000 600.000000"
 preserveAspectRatio="xMidYMid meet">
<metadata>
Created by potrace 1.16, written by Peter Selinger 2001-2019
</metadata>
<g transform="translate(0.000000,600.000000) scale(0.100000,-0.100000)"
fill="#000000" stroke="none">
<path d="M0 3000 l0 -3000 4000 0 4000 0 0 3000 0 3000 -4000 0 -4000 0 0
-3000z m3985 1025 c0 -83 -1 -90 -20 -90 -18 0 -20 8 -23 70 -4 87 3 117 26
113 15 -3 17 -16 17 -93z m-265 -54 c44 -76 49 -101 23 -101 -20 0 -93 119
-93 151 0 39 30 17 70 -50z m560 54 c0 -37 -73 -155 -96 -155 -23 0 -16 28 26
101 38 64 70 89 70 54z m-151 -191 c139 -37 283 -116 413 -229 117 -101 116
-94 30 -176 -179 -171 -415 -279 -609 -279 -132 1 -300 58 -439 149 -96 63
-234 185 -234 206 0 16 104 112 185 170 224 160 444 213 654 159z m-1553
-1188 c2 -153 8 -264 13 -269 6 -6 26 -10 45 -9 29 1 35 -3 40 -25 8 -31 7
-33 -40 -43 -50 -12 -88 -3 -115 26 -21 23 -23 33 -25 201 -2 98 0 224 3 281
l6 103 35 -3 35 -3 3 -259z m224 214 l0 -50 -35 0 -35 0 0 50 0 50 35 0 35 0
0 -50z m-553 -98 c28 -70 81 -199 117 -286 36 -88 66 -163 66 -168 0 -4 -17
-8 -39 -8 -38 0 -38 0 -70 75 -17 41 -31 79 -31 85 0 7 -43 10 -127 8 l-127
-3 -32 -80 -32 -80 -41 -3 c-23 -2 -41 -1 -41 2 0 5 13 38 133 331 112 274
102 255 139 255 33 0 33 -1 85 -128z m2128 98 c44 -41 58 -77 53 -137 -4 -43
-11 -60 -36 -86 l-31 -32 39 -33 c91 -76 73 -204 -34 -253 -34 -16 -67 -19
-203 -19 l-163 0 0 296 0 295 174 -3 c170 -3 175 -4 201 -28z m-1575 -340 l0
-220 -35 0 c-29 0 -36 4 -41 25 -5 19 0 384 6 413 0 1 16 2 35 2 l35 0 0 -220z
m378 194 c51 -25 51 -26 36 -50 -16 -23 -17 -23 -47 -7 -99 51 -197 28 -197
-47 0 -24 29 -38 139 -70 94 -27 131 -61 131 -118 0 -115 -170 -169 -309 -99
-51 25 -57 35 -37 62 14 19 15 19 58 -5 34 -19 57 -25 111 -25 59 0 71 3 87
23 10 12 17 30 15 40 -2 9 -4 20 -4 25 -1 11 -54 32 -137 56 -99 29 -124 50
-124 107 0 25 7 56 16 70 44 67 168 85 262 38z m406 3 c67 -37 80 -72 85 -219
1 -71 7 -128 12 -128 5 0 9 -16 9 -35 0 -32 -2 -35 -29 -35 -32 0 -61 22 -61
46 0 11 -8 9 -32 -9 -82 -61 -177 -60 -240 3 -33 33 -38 44 -38 83 0 37 6 53
30 81 42 47 85 60 187 53 l83 -5 0 33 c0 70 -73 116 -152 95 -24 -7 -55 -19
-70 -28 -30 -18 -32 -17 -42 16 -7 20 -1 25 46 47 71 33 157 34 212 2z m1034
-24 l3 -40 38 38 c60 60 121 66 121 11 0 -27 -4 -31 -47 -41 -28 -8 -59 -25
-80 -46 l-33 -33 0 -142 0 -141 -37 3 -38 3 0 212 c0 117 4 214 8 216 5 1 21
2 35 1 24 -1 27 -5 30 -41z m481 27 c67 -34 81 -69 81 -207 0 -89 4 -124 15
-139 8 -10 15 -31 15 -46 0 -23 -4 -28 -26 -28 -36 0 -64 17 -64 40 0 17 -4
17 -47 -10 -67 -41 -129 -48 -185 -21 -51 24 -78 65 -78 116 0 86 66 135 183
135 36 0 77 -4 91 -10 24 -9 26 -8 26 20 0 102 -101 146 -209 90 -35 -18 -45
-19 -52 -8 -17 26 -8 39 44 63 66 32 151 34 206 5z m896 1 c75 -34 125 -114
125 -199 0 -98 -40 -165 -122 -206 -28 -14 -67 -26 -86 -26 -154 0 -264 148
-217 292 22 67 45 96 103 130 57 34 136 37 197 9z m-615 -158 c34 -93 65 -171
69 -175 3 -4 35 72 71 168 l64 174 38 0 37 0 -13 -32 c-8 -18 -46 -115 -86
-216 l-72 -183 -41 3 -41 3 -83 210 c-46 116 -83 211 -83 213 0 1 17 2 38 2
l39 0 63 -167z m-2249 -553 c12 -7 19 -21 19 -40 0 -31 -22 -50 -59 -50 -16 0
-21 -6 -21 -25 0 -16 -6 -25 -15 -25 -12 0 -15 15 -15 75 l0 75 36 0 c19 0 44
-5 55 -10z m99 -20 c0 -28 2 -30 40 -30 38 0 40 2 40 30 0 17 5 30 10 30 6 0
10 -32 10 -75 0 -43 -4 -75 -10 -75 -5 0 -10 14 -10 30 0 28 -2 30 -40 30 -38
0 -40 -2 -40 -30 0 -16 -4 -30 -10 -30 -6 0 -10 32 -10 75 0 43 4 75 10 75 6
0 10 -13 10 -30z m275 5 c14 -13 25 -35 25 -48 0 -36 -36 -77 -68 -77 -35 0
-72 37 -72 72 0 34 39 78 70 78 12 0 32 -11 45 -25z m195 15 c0 -5 -11 -10
-25 -10 -24 0 -25 -2 -25 -65 0 -51 -3 -65 -15 -65 -12 0 -15 14 -15 65 0 63
-1 65 -25 65 -14 0 -25 5 -25 10 0 6 28 10 65 10 37 0 65 -4 65 -10z m147 -10
c31 -28 36 -55 18 -89 -27 -54 -104 -51 -125 5 -28 73 52 136 107 84z m189 6
c24 -18 13 -31 -15 -16 -45 24 -86 -31 -57 -75 18 -28 47 -32 66 -10 10 12 9
16 -4 21 -24 9 -19 24 9 24 22 0 25 -4 25 -38 0 -37 0 -38 -43 -40 -56 -2 -87
24 -87 73 0 62 59 95 106 61z m175 4 c21 -12 26 -59 8 -77 -9 -9 -8 -18 5 -37
14 -22 14 -26 1 -26 -8 0 -22 11 -31 25 -9 14 -23 25 -30 25 -8 0 -14 -10 -14
-25 0 -16 -6 -25 -15 -25 -12 0 -15 15 -15 75 l0 75 36 0 c19 0 44 -5 55 -10z
m158 -12 c5 -13 18 -47 30 -75 17 -43 18 -53 7 -53 -8 0 -18 9 -21 20 -4 14
-15 20 -35 20 -20 0 -31 -6 -35 -20 -3 -11 -13 -20 -21 -20 -11 0 -10 9 5 48
44 110 54 121 70 80z m192 12 c12 -7 19 -21 19 -40 0 -31 -22 -50 -59 -50 -16
0 -21 -6 -21 -25 0 -16 -6 -25 -15 -25 -12 0 -15 14 -15 68 0 38 3 72 7 75 10
11 62 8 84 -3z m99 -20 c0 -28 2 -30 40 -30 38 0 40 2 40 30 0 17 5 30 10 30
6 0 10 -32 10 -75 0 -43 -4 -75 -10 -75 -5 0 -10 14 -10 30 0 28 -2 30 -40 30
-38 0 -40 -2 -40 -30 0 -16 -4 -30 -10 -30 -6 0 -10 32 -10 75 0 43 4 75 10
75 6 0 10 -13 10 -30z m198 -6 l19 -37 22 37 c13 20 27 36 32 36 14 0 11 -11
-16 -59 -14 -23 -25 -54 -25 -67 0 -13 -4 -24 -10 -24 -5 0 -10 10 -10 22 0
12 -14 45 -30 75 -23 40 -27 53 -15 53 8 0 23 -16 33 -36z"/>
<path d="M4115 3787 c11 -7 45 -37 76 -68 41 -40 61 -70 74 -110 47 -141 -4
-294 -124 -371 -40 -26 -42 -28 -16 -22 109 25 296 132 409 235 l58 54 -59 51
c-86 75 -180 139 -264 179 -73 34 -194 75 -154 52z"/>
<path d="M3745 3771 c-113 -41 -234 -115 -348 -215 l-59 -51 53 -48 c127 -117
288 -211 414 -241 25 -6 22 -2 -20 26 -55 36 -109 108 -125 166 -15 55 -12
152 6 205 17 51 81 129 129 158 38 24 15 24 -50 0z"/>
<path d="M3879 3764 c-56 -17 -133 -82 -161 -138 -13 -24 -23 -68 -26 -109 -4
-61 -2 -73 28 -133 50 -101 131 -152 245 -153 102 -1 197 57 248 153 17 32 22
58 22 121 0 69 -4 86 -27 127 -71 120 -200 172 -329 132z m181 -20 c22 -9 40
-19 40 -23 -1 -37 -62 -195 -80 -206 -4 -3 -13 17 -20 43 -14 56 -54 139 -81
168 -10 11 -19 23 -19 27 0 14 120 7 160 -9z m-146 -35 c32 -38 84 -159 68
-159 -4 0 -16 6 -27 14 -32 21 -95 39 -163 45 l-63 6 23 35 c23 33 101 100
118 100 5 0 24 -19 44 -41z m239 -26 c26 -28 66 -107 67 -131 0 -17 -113 -69
-168 -78 l-42 -7 34 57 c19 31 42 85 51 121 10 36 21 65 25 65 3 0 18 -12 33
-27z m-260 -109 c26 -9 47 -19 47 -23 0 -4 -16 -13 -36 -20 -43 -16 -105 -70
-135 -117 -11 -19 -24 -34 -28 -34 -25 0 -41 162 -20 202 10 18 17 20 68 15
31 -4 77 -14 104 -23z m327 -91 c0 -40 -30 -115 -57 -145 -14 -16 -19 -15 -74
12 -56 29 -129 85 -129 99 0 4 22 7 50 8 28 2 81 15 122 32 40 16 76 30 81 30
4 1 7 -16 7 -36z m-316 -35 c-3 -40 0 -88 8 -130 14 -67 14 -68 -7 -68 -27 0
-124 59 -142 86 -11 18 -9 26 17 67 26 42 100 107 122 107 5 0 6 -28 2 -62z
m174 -107 c29 -14 51 -29 49 -35 -6 -20 -85 -57 -135 -63 l-49 -5 -11 57 c-7
32 -12 84 -12 116 l0 57 53 -51 c29 -29 77 -63 105 -76z"/>
<path d="M2147 2760 c-39 -91 -87 -215 -87 -222 0 -4 45 -8 100 -8 55 0 100 3
100 8 0 4 -22 63 -49 132 l-49 125 -15 -35z"/>
<path d="M4080 2725 l0 -95 99 0 c55 0 111 4 126 10 36 14 60 72 45 113 -21
63 -32 67 -157 67 l-113 0 0 -95z"/>
<path d="M4080 2470 l0 -100 118 0 c96 0 121 4 138 18 46 36 55 85 27 133 -23
39 -59 49 -179 49 l-104 0 0 -100z"/>
<path d="M3425 2505 c-66 -24 -83 -69 -45 -118 28 -36 79 -44 135 -22 54 20
75 47 75 96 0 33 -3 38 -27 43 -74 14 -101 15 -138 1z"/>
<path d="M4950 2510 c-79 -19 -97 -110 -29 -145 38 -20 75 -18 126 4 47 22 63
45 63 95 0 30 -4 35 -27 40 -64 12 -100 14 -133 6z"/>
<path d="M5855 2666 c-78 -34 -114 -130 -79 -215 47 -111 181 -122 244 -19 25
41 26 117 4 164 -29 61 -111 95 -169 70z"/>
<path d="M3070 1970 c0 -33 15 -38 45 -16 16 12 17 16 6 30 -7 9 -22 16 -32
16 -14 0 -19 -7 -19 -30z"/>
<path d="M3436 1987 c-22 -16 -18 -75 7 -91 25 -16 51 4 55 45 3 30 -15 59
-38 59 -3 0 -14 -6 -24 -13z"/>
<path d="M3782 1984 c-37 -25 -20 -94 23 -94 43 0 58 71 20 96 -18 12 -24 11
-43 -2z"/>
<path d="M4150 1970 c0 -23 5 -30 19 -30 28 0 47 26 31 45 -7 8 -21 15 -31 15
-14 0 -19 -7 -19 -30z"/>
<path d="M4342 1963 c-16 -29 -15 -33 8 -33 22 0 23 4 11 35 -8 19 -8 19 -19
-2z"/>
<path d="M4500 1970 c0 -23 5 -30 19 -30 28 0 47 26 31 45 -7 8 -21 15 -31 15
-14 0 -19 -7 -19 -30z"/>
</g>
</svg>
